<svg xmlns="http://www.w3.org/2000/svg" width="520" height="380" viewBox="0 0 520 380">
  <defs>
    <radialGradient id="g" cx="30%" cy="20%" r="90%">
      <stop offset="0%" stop-color="#3B6FE8" stop-opacity="0.16"/>
      <stop offset="45%" stop-color="#13161F" stop-opacity="1"/>
      <stop offset="100%" stop-color="#0C0E14" stop-opacity="1"/>
    </radialGradient>
  </defs>
  <rect width="520" height="380" fill="url(#g)"/>
  <line x1="0" y1="67.1" x2="520" y2="27.4" stroke="#3B6FE8" stroke-opacity="0.08" stroke-width="1"/><line x1="0" y1="127.5" x2="520" y2="166.0" stroke="#3B6FE8" stroke-opacity="0.08" stroke-width="1"/><line x1="0" y1="204.1" x2="520" y2="186.5" stroke="#3B6FE8" stroke-opacity="0.08" stroke-width="1"/><line x1="0" y1="256.7" x2="520" y2="274.4" stroke="#3B6FE8" stroke-opacity="0.08" stroke-width="1"/><line x1="0" y1="314.4" x2="520" y2="354.0" stroke="#3B6FE8" stroke-opacity="0.08" stroke-width="1"/>
  <circle cx="236.7" cy="185.7" r="1.3" fill="#EEE9DC" fill-opacity="0.06"/><circle cx="128.7" cy="58.7" r="2.0" fill="#EEE9DC" fill-opacity="0.04"/><circle cx="205.2" cy="291.5" r="1.6" fill="#EEE9DC" fill-opacity="0.05"/><circle cx="22.2" cy="162.4" r="2.2" fill="#EEE9DC" fill-opacity="0.09"/><circle cx="153.3" cy="78.1" r="2.3" fill="#EEE9DC" fill-opacity="0.07"/><circle cx="394.4" cy="73.3" r="2.4" fill="#EEE9DC" fill-opacity="0.07"/><circle cx="400.6" cy="377.9" r="1.5" fill="#EEE9DC" fill-opacity="0.09"/><circle cx="79.7" cy="122.9" r="1.8" fill="#EEE9DC" fill-opacity="0.05"/><circle cx="79.1" cy="275.9" r="2.2" fill="#EEE9DC" fill-opacity="0.05"/><circle cx="137.6" cy="18.5" r="2.2" fill="#EEE9DC" fill-opacity="0.09"/>
  <rect x="0.5" y="0.5" width="519" height="379" fill="none" stroke="#EEE9DC" stroke-opacity="0.06"/>
  <text x="24" y="332" font-family="JetBrains Mono, monospace" font-size="11" letter-spacing="2" fill="#EEE9DC" fill-opacity="0.28" text-transform="uppercase">PHOTO 01 · LANDSCAPE 520×380</text>
  <text x="24" y="354" font-family="Inter, sans-serif" font-size="13" fill="#EEE9DC" fill-opacity="0.45">DataQuest 2024 — Opening night</text>
</svg>