<svg xmlns="http://www.w3.org/2000/svg" width="320" height="520" viewBox="0 0 320 520">
  <defs>
    <radialGradient id="g" cx="30%" cy="20%" r="90%">
      <stop offset="0%" stop-color="#E8894A" stop-opacity="0.16"/>
      <stop offset="45%" stop-color="#13161F" stop-opacity="1"/>
      <stop offset="100%" stop-color="#0C0E14" stop-opacity="1"/>
    </radialGradient>
  </defs>
  <rect width="320" height="520" fill="url(#g)"/>
  <line x1="0" y1="93.7" x2="320" y2="79.7" stroke="#E8894A" stroke-opacity="0.08" stroke-width="1"/><line x1="0" y1="166.9" x2="320" y2="169.9" stroke="#E8894A" stroke-opacity="0.08" stroke-width="1"/><line x1="0" y1="271.3" x2="320" y2="281.7" stroke="#E8894A" stroke-opacity="0.08" stroke-width="1"/><line x1="0" y1="346.6" x2="320" y2="335.2" stroke="#E8894A" stroke-opacity="0.08" stroke-width="1"/><line x1="0" y1="441.8" x2="320" y2="410.9" stroke="#E8894A" stroke-opacity="0.08" stroke-width="1"/>
  <circle cx="251.5" cy="104.8" r="1.8" fill="#EEE9DC" fill-opacity="0.09"/><circle cx="186.0" cy="73.3" r="2.3" fill="#EEE9DC" fill-opacity="0.06"/><circle cx="310.9" cy="20.4" r="2.8" fill="#EEE9DC" fill-opacity="0.04"/><circle cx="41.0" cy="99.8" r="1.0" fill="#EEE9DC" fill-opacity="0.10"/><circle cx="144.7" cy="330.0" r="3.0" fill="#EEE9DC" fill-opacity="0.05"/><circle cx="149.7" cy="181.1" r="1.1" fill="#EEE9DC" fill-opacity="0.07"/><circle cx="30.5" cy="30.1" r="2.9" fill="#EEE9DC" fill-opacity="0.09"/><circle cx="0.2" cy="510.7" r="1.1" fill="#EEE9DC" fill-opacity="0.10"/><circle cx="168.8" cy="101.3" r="2.4" fill="#EEE9DC" fill-opacity="0.04"/><circle cx="249.0" cy="474.0" r="2.7" fill="#EEE9DC" fill-opacity="0.07"/>
  <rect x="0.5" y="0.5" width="319" height="519" fill="none" stroke="#EEE9DC" stroke-opacity="0.06"/>
  <text x="24" y="472" font-family="JetBrains Mono, monospace" font-size="11" letter-spacing="2" fill="#EEE9DC" fill-opacity="0.28" text-transform="uppercase">PHOTO 02 · PORTRAIT 320×520</text>
  <text x="24" y="494" font-family="Inter, sans-serif" font-size="13" fill="#EEE9DC" fill-opacity="0.45">ML Bootcamp — Workshop session</text>
</svg>