<svg xmlns="http://www.w3.org/2000/svg" width="520" height="380" viewBox="0 0 520 380">
  <defs>
    <radialGradient id="g" cx="30%" cy="20%" r="90%">
      <stop offset="0%" stop-color="#3B6FE8" stop-opacity="0.16"/>
      <stop offset="45%" stop-color="#13161F" stop-opacity="1"/>
      <stop offset="100%" stop-color="#0C0E14" stop-opacity="1"/>
    </radialGradient>
  </defs>
  <rect width="520" height="380" fill="url(#g)"/>
  <line x1="0" y1="69.9" x2="520" y2="33.0" stroke="#3B6FE8" stroke-opacity="0.08" stroke-width="1"/><line x1="0" y1="125.4" x2="520" y2="91.3" stroke="#3B6FE8" stroke-opacity="0.08" stroke-width="1"/><line x1="0" y1="197.9" x2="520" y2="196.4" stroke="#3B6FE8" stroke-opacity="0.08" stroke-width="1"/><line x1="0" y1="252.9" x2="520" y2="225.9" stroke="#3B6FE8" stroke-opacity="0.08" stroke-width="1"/><line x1="0" y1="309.6" x2="520" y2="313.8" stroke="#3B6FE8" stroke-opacity="0.08" stroke-width="1"/>
  <circle cx="101.4" cy="31.8" r="2.4" fill="#EEE9DC" fill-opacity="0.07"/><circle cx="412.7" cy="334.3" r="1.6" fill="#EEE9DC" fill-opacity="0.08"/><circle cx="149.1" cy="255.4" r="2.1" fill="#EEE9DC" fill-opacity="0.09"/><circle cx="280.8" cy="4.4" r="2.8" fill="#EEE9DC" fill-opacity="0.06"/><circle cx="487.1" cy="292.4" r="1.8" fill="#EEE9DC" fill-opacity="0.08"/><circle cx="80.3" cy="139.8" r="2.4" fill="#EEE9DC" fill-opacity="0.04"/><circle cx="4.3" cy="181.8" r="2.7" fill="#EEE9DC" fill-opacity="0.08"/><circle cx="354.7" cy="298.8" r="2.2" fill="#EEE9DC" fill-opacity="0.07"/><circle cx="36.9" cy="141.5" r="2.1" fill="#EEE9DC" fill-opacity="0.09"/><circle cx="214.8" cy="176.3" r="2.0" fill="#EEE9DC" fill-opacity="0.07"/>
  <rect x="0.5" y="0.5" width="519" height="379" fill="none" stroke="#EEE9DC" stroke-opacity="0.06"/>
  <text x="24" y="332" font-family="JetBrains Mono, monospace" font-size="11" letter-spacing="2" fill="#EEE9DC" fill-opacity="0.28" text-transform="uppercase">PHOTO 03 · LANDSCAPE 520×380</text>
  <text x="24" y="354" font-family="Inter, sans-serif" font-size="13" fill="#EEE9DC" fill-opacity="0.45">SDS Annual Summit</text>
</svg>