<svg xmlns="http://www.w3.org/2000/svg" width="520" height="380" viewBox="0 0 520 380">
  <defs>
    <radialGradient id="g" cx="30%" cy="20%" r="90%">
      <stop offset="0%" stop-color="#E8894A" stop-opacity="0.16"/>
      <stop offset="45%" stop-color="#13161F" stop-opacity="1"/>
      <stop offset="100%" stop-color="#0C0E14" stop-opacity="1"/>
    </radialGradient>
  </defs>
  <rect width="520" height="380" fill="url(#g)"/>
  <line x1="0" y1="76.0" x2="520" y2="62.7" stroke="#E8894A" stroke-opacity="0.08" stroke-width="1"/><line x1="0" y1="118.3" x2="520" y2="84.9" stroke="#E8894A" stroke-opacity="0.08" stroke-width="1"/><line x1="0" y1="182.0" x2="520" y2="182.7" stroke="#E8894A" stroke-opacity="0.08" stroke-width="1"/><line x1="0" y1="240.7" x2="520" y2="278.6" stroke="#E8894A" stroke-opacity="0.08" stroke-width="1"/><line x1="0" y1="320.3" x2="520" y2="335.6" stroke="#E8894A" stroke-opacity="0.08" stroke-width="1"/>
  <circle cx="399.4" cy="140.3" r="2.5" fill="#EEE9DC" fill-opacity="0.09"/><circle cx="275.0" cy="282.5" r="1.8" fill="#EEE9DC" fill-opacity="0.07"/><circle cx="382.7" cy="353.7" r="3.0" fill="#EEE9DC" fill-opacity="0.07"/><circle cx="180.9" cy="299.5" r="1.5" fill="#EEE9DC" fill-opacity="0.09"/><circle cx="274.3" cy="130.3" r="1.9" fill="#EEE9DC" fill-opacity="0.04"/><circle cx="252.4" cy="205.2" r="2.5" fill="#EEE9DC" fill-opacity="0.05"/><circle cx="419.8" cy="153.6" r="1.7" fill="#EEE9DC" fill-opacity="0.07"/><circle cx="31.5" cy="237.0" r="1.6" fill="#EEE9DC" fill-opacity="0.07"/><circle cx="76.3" cy="362.4" r="2.7" fill="#EEE9DC" fill-opacity="0.10"/><circle cx="182.0" cy="70.7" r="2.3" fill="#EEE9DC" fill-opacity="0.07"/>
  <rect x="0.5" y="0.5" width="519" height="379" fill="none" stroke="#EEE9DC" stroke-opacity="0.06"/>
  <text x="24" y="332" font-family="JetBrains Mono, monospace" font-size="11" letter-spacing="2" fill="#EEE9DC" fill-opacity="0.28" text-transform="uppercase">PHOTO 04 · LANDSCAPE 520×380</text>
  <text x="24" y="354" font-family="Inter, sans-serif" font-size="13" fill="#EEE9DC" fill-opacity="0.45">Kaggle Night — Final submissions</text>
</svg>