<svg xmlns="http://www.w3.org/2000/svg" width="320" height="520" viewBox="0 0 320 520">
  <defs>
    <radialGradient id="g" cx="30%" cy="20%" r="90%">
      <stop offset="0%" stop-color="#3B6FE8" stop-opacity="0.16"/>
      <stop offset="45%" stop-color="#13161F" stop-opacity="1"/>
      <stop offset="100%" stop-color="#0C0E14" stop-opacity="1"/>
    </radialGradient>
  </defs>
  <rect width="320" height="520" fill="url(#g)"/>
  <line x1="0" y1="92.4" x2="320" y2="114.2" stroke="#3B6FE8" stroke-opacity="0.08" stroke-width="1"/><line x1="0" y1="164.9" x2="320" y2="174.8" stroke="#3B6FE8" stroke-opacity="0.08" stroke-width="1"/><line x1="0" y1="247.6" x2="320" y2="254.9" stroke="#3B6FE8" stroke-opacity="0.08" stroke-width="1"/><line x1="0" y1="353.3" x2="320" y2="349.9" stroke="#3B6FE8" stroke-opacity="0.08" stroke-width="1"/><line x1="0" y1="445.5" x2="320" y2="423.9" stroke="#3B6FE8" stroke-opacity="0.08" stroke-width="1"/>
  <circle cx="249.6" cy="385.1" r="2.3" fill="#EEE9DC" fill-opacity="0.04"/><circle cx="148.9" cy="156.2" r="2.8" fill="#EEE9DC" fill-opacity="0.06"/><circle cx="241.7" cy="376.2" r="1.5" fill="#EEE9DC" fill-opacity="0.04"/><circle cx="253.9" cy="108.3" r="1.5" fill="#EEE9DC" fill-opacity="0.05"/><circle cx="150.4" cy="515.7" r="1.5" fill="#EEE9DC" fill-opacity="0.04"/><circle cx="271.5" cy="164.9" r="1.8" fill="#EEE9DC" fill-opacity="0.10"/><circle cx="87.0" cy="200.8" r="1.4" fill="#EEE9DC" fill-opacity="0.09"/><circle cx="231.2" cy="457.0" r="2.0" fill="#EEE9DC" fill-opacity="0.09"/><circle cx="207.7" cy="72.6" r="2.3" fill="#EEE9DC" fill-opacity="0.07"/><circle cx="100.9" cy="405.0" r="2.2" fill="#EEE9DC" fill-opacity="0.04"/>
  <rect x="0.5" y="0.5" width="319" height="519" fill="none" stroke="#EEE9DC" stroke-opacity="0.06"/>
  <text x="24" y="472" font-family="JetBrains Mono, monospace" font-size="11" letter-spacing="2" fill="#EEE9DC" fill-opacity="0.28" text-transform="uppercase">PHOTO 05 · PORTRAIT 320×520</text>
  <text x="24" y="494" font-family="Inter, sans-serif" font-size="13" fill="#EEE9DC" fill-opacity="0.45">Industry Connect — Panel AMA</text>
</svg>