<svg xmlns="http://www.w3.org/2000/svg" width="520" height="380" viewBox="0 0 520 380">
  <defs>
    <radialGradient id="g" cx="30%" cy="20%" r="90%">
      <stop offset="0%" stop-color="#E8894A" stop-opacity="0.16"/>
      <stop offset="45%" stop-color="#13161F" stop-opacity="1"/>
      <stop offset="100%" stop-color="#0C0E14" stop-opacity="1"/>
    </radialGradient>
  </defs>
  <rect width="520" height="380" fill="url(#g)"/>
  <line x1="0" y1="64.1" x2="520" y2="24.3" stroke="#E8894A" stroke-opacity="0.08" stroke-width="1"/><line x1="0" y1="131.6" x2="520" y2="107.7" stroke="#E8894A" stroke-opacity="0.08" stroke-width="1"/><line x1="0" y1="191.3" x2="520" y2="156.9" stroke="#E8894A" stroke-opacity="0.08" stroke-width="1"/><line x1="0" y1="238.5" x2="520" y2="272.1" stroke="#E8894A" stroke-opacity="0.08" stroke-width="1"/><line x1="0" y1="330.8" x2="520" y2="307.6" stroke="#E8894A" stroke-opacity="0.08" stroke-width="1"/>
  <circle cx="485.7" cy="145.4" r="1.0" fill="#EEE9DC" fill-opacity="0.04"/><circle cx="235.6" cy="298.0" r="2.3" fill="#EEE9DC" fill-opacity="0.07"/><circle cx="211.5" cy="75.7" r="3.0" fill="#EEE9DC" fill-opacity="0.10"/><circle cx="139.9" cy="359.1" r="2.7" fill="#EEE9DC" fill-opacity="0.10"/><circle cx="363.2" cy="358.9" r="2.9" fill="#EEE9DC" fill-opacity="0.10"/><circle cx="113.5" cy="210.0" r="1.4" fill="#EEE9DC" fill-opacity="0.06"/><circle cx="110.8" cy="315.9" r="1.8" fill="#EEE9DC" fill-opacity="0.07"/><circle cx="300.7" cy="336.5" r="2.1" fill="#EEE9DC" fill-opacity="0.09"/><circle cx="371.0" cy="217.8" r="1.5" fill="#EEE9DC" fill-opacity="0.09"/><circle cx="421.4" cy="77.7" r="1.8" fill="#EEE9DC" fill-opacity="0.06"/>
  <rect x="0.5" y="0.5" width="519" height="379" fill="none" stroke="#EEE9DC" stroke-opacity="0.06"/>
  <text x="24" y="332" font-family="JetBrains Mono, monospace" font-size="11" letter-spacing="2" fill="#EEE9DC" fill-opacity="0.28" text-transform="uppercase">PHOTO 06 · LANDSCAPE 520×380</text>
  <text x="24" y="354" font-family="Inter, sans-serif" font-size="13" fill="#EEE9DC" fill-opacity="0.45">Team offsite — Semester close</text>
</svg>